<svg id="Layer_1" enable-background="new 0 0 512.144 512.144" height="512" viewBox="0 0 512.144 512.144" width="512" xmlns="http://www.w3.org/2000/svg"><g><path d="m259.477 389.792c0-63.431 51.421-114.852 114.852-114.852 33.553 0 63.742 14.39 84.741 37.333v-144.057h-436.106v275.942h250.175c-8.714-16.185-13.662-34.697-13.662-54.366z" fill="#fff"/><path d="m273.484 334.786v-59.846h-64.936v64.936h62.315c.833-1.722 1.708-3.418 2.621-5.09z" fill="#e1fda0"/><g fill="#d5f6ea"><path d="m115.836 21.162v57.475h-45.208v-57.475l10.161-13.662h24.886z"/><path d="m115.836 21.162v57.475h-45.208v-57.475l10.161-13.662h24.886z"/><path d="m214.359 21.162v57.475h-45.208v-57.475l10.161-13.662h24.886z"/><path d="m312.882 21.162v57.475h-45.208v-57.475l10.161-13.662h24.886z"/><path d="m411.405 21.162v57.475h-45.208v-57.475l10.162-13.662h24.885z"/></g><path d="m459.07 41.344v126.874h-436.106v-126.874h47.664v37.293h45.208v-37.293h53.315v37.293h45.208v-37.293h53.315v37.293h45.208v-37.293h53.315v37.293h45.208v-37.293z" fill="#ff6a47"/><path d="m78.677 210.004h64.936v64.936h-64.936z" fill="#e1fda0"/><path d="m78.677 274.94h64.936v64.936h-64.936z" fill="#e1fda0"/><path d="m78.677 339.875h64.936v64.936h-64.936z" fill="#e1fda0"/><path d="m143.613 210.004h64.936v64.936h-64.936z" fill="#e1fda0"/><path d="m143.613 274.94h64.936v64.936h-64.936z" fill="#ff6a47"/><path d="m143.613 339.875h64.936v64.936h-64.936z" fill="#e1fda0"/><path d="m208.549 210.004h64.936v64.936h-64.936z" fill="#e1fda0"/><path d="m273.484 210.004h64.936v64.936h-64.936z" fill="#ff6a47"/><path d="m338.42 210.004h64.936v64.936h-64.936z" fill="#e1fda0"/><circle cx="374.329" cy="389.792" fill="#fee95d" r="114.852"/><path d="m270.864 339.875h-62.315v64.936h51.906c-2.831-21.667.421-44.271 10.409-64.936z" fill="#ff6a47"/><path d="m338.42 280.673v-5.733h-64.936v59.846c13.872-25.378 37.046-44.94 64.936-54.113z" fill="#e1fda0"/><g><g><g><path d="m384.339 275.377c29.518 2.55 55.843 16.26 74.731 36.896v-17.353c-21.713-14.848-47.881-21.856-74.731-19.543z" fill="#a7eed4"/></g><g><path d="m22.964 168.216h20v275.942h-20z" fill="#a7eed4"/></g></g></g><path d="m208.549 274.94h20v64.936h-20z" fill="#8ae897"/><path d="m90.628 21.162 10.161-13.662h-20l-10.161 13.662v57.475h20z" fill="#a7eed4"/><path d="m199.312 7.5h-20l-10.161 13.662v57.475h20v-57.475z" fill="#a7eed4"/><path d="m297.835 7.5h-20l-10.161 13.662v57.475h20v-57.475z" fill="#a7eed4"/><path d="m396.359 7.5h-20l-10.162 13.662v57.475h20v-57.475z" fill="#a7eed4"/><g><g><g><path d="m312.882 41.344h20v37.293h-20z" fill="#d03582"/></g><g><path d="m411.405 41.344h20v37.293h-20z" fill="#d03582"/></g><g><path d="m22.964 41.344h20v126.874h-20z" fill="#d03582"/></g><g><path d="m115.836 41.344h20v37.293h-20z" fill="#d03582"/></g><g><path d="m214.359 41.344h20v37.293h-20z" fill="#d03582"/></g></g></g><path d="m78.677 210.004h20v64.936h-20z" fill="#8ae897"/><path d="m78.677 274.94h20v64.936h-20z" fill="#8ae897"/><path d="m78.677 339.875h20v64.936h-20z" fill="#8ae897"/><path d="m143.613 210.004h20v64.936h-20z" fill="#8ae897"/><path d="m143.613 274.94h20v64.936h-20z" fill="#d03582"/><path d="m143.613 339.875h20v64.936h-20z" fill="#8ae897"/><path d="m208.549 210.004h20v64.936h-20z" fill="#8ae897"/><path d="m273.484 210.004h20v64.936h-20z" fill="#d03582"/><path d="m338.42 210.004h20v64.936h-20z" fill="#8ae897"/><path d="m279.477 389.792c0-60.061 46.105-109.345 104.852-114.414-67.551-5.829-124.852 47.399-124.852 114.414 0 67 57.283 120.244 124.852 114.414-58.747-5.069-104.852-54.353-104.852-114.414z" fill="#ffc277"/><path d="m208.549 339.875h20v64.936h-20z" fill="#d03582"/><path d="m293.484 274.94h-20v59.846c5.363-9.812 12.121-18.749 20-26.557z" fill="#8ae897"/><g><path d="m410.856 247.874v-45.37h-339.679v209.808l159.08.002v-15h-14.208c0-6.249 0-43.694 0-49.939h22.288v-15h-22.288v-49.93l64.936-.005.002-64.936h49.931v31.95h15v-31.95h49.939v30.37zm-259.743 34.565h49.934v49.936h-49.934zm64.936-64.935h49.936v49.936h-49.936zm-64.936 0h49.936v49.936h-49.936zm-64.936 0h49.937v49.936h-49.937zm0 64.935h49.937v49.936h-49.937zm49.936 114.873h-49.936v-49.937h49.937v49.937zm15 0v-49.937h49.934v49.937z"/><path d="m374.326 267.444c-67.464 0-122.35 54.886-122.35 122.35 0 30.755 11.46 60.152 32.27 82.777l11.041-10.154c-18.257-19.849-28.311-45.64-28.311-72.623 0-59.192 48.157-107.35 107.35-107.35s107.351 48.157 107.351 107.35-48.157 107.35-107.351 107.35c-25.173 0-49.639-8.892-68.891-25.037l-9.639 11.494c21.949 18.406 49.838 28.543 78.529 28.543 67.464 0 122.351-54.886 122.351-122.35s-54.886-122.35-122.35-122.35z"/><path d="m366.358 306.973v97.676h70.152v-15h-55.152v-82.676z"/><path d="m30.467 175.714h40.71v-15h-40.71v-111.87h32.66v37.29h.001v.003h60.208v-.003h.001v-37.29h38.31v37.29h.005v.003h60.207v-37.293h38.316v37.293h60.207v-.003h.005v-37.29h38.31v37.29h.001v.003h60.208v-.003h.001v-37.29h32.66v111.87h-365.39v15h365.39v96.67h15v-238.54h-47.661v-15.165l-13.893-18.679h-32.423l-13.893 18.679v15.165h-38.315v-15.165l-13.893-18.679h-32.422l-13.893 18.679v15.165h-38.316v-15.165l-13.892-18.679h-32.422l-13.893 18.679v15.165h-38.315v-15.165l-13.893-18.679h-32.422l-13.893 18.679v15.165h-47.661v417.811h224.59v-15h-209.59zm349.66-160.714h17.349l6.43 8.646v47.488h-30.208v-47.488zm-104.952 8.646 6.43-8.646h17.348l6.43 8.646v47.488h-30.205v-37.29h-.002v-10.198zm-92.094-8.646h17.348l6.43 8.646v10.198h-.002v37.29h-30.205v-47.488zm-98.523 0h17.349l6.43 8.646v47.488h-30.209v-47.488z"/></g><g><path d="m293.017 136.068h-15v-15h15zm-45 0h-15v-15h15zm-45 0h-15v-15h15z" fill="#fff"/></g><g><path d="m287.618 389.649h15v15h-15z"/></g><g><path d="m366.931 462.292h15v15h-15z"/></g></g></svg>