<?xml version="1.0" encoding="iso-8859-1"?>
<!-- Generator: Adobe Illustrator 19.0.0, SVG Export Plug-In . SVG Version: 6.00 Build 0)  -->
<svg version="1.1" id="Capa_1" xmlns="http://www.w3.org/2000/svg" xmlns:xlink="http://www.w3.org/1999/xlink" x="0px" y="0px"
	 viewBox="0 0 512.003 512.003" style="enable-background:new 0 0 512.003 512.003;" xml:space="preserve">
<path style="fill:#EDEBED;" d="M413.862,364.082l-84.486-24.849h-146.75L98.14,364.082c-20.469,6.02-34.526,24.806-34.526,46.143
	V504.5h384.774v-94.275C448.388,388.889,434.332,370.103,413.862,364.082z"/>
<polygon style="fill:#A5CDFF;" points="296.082,504.5 215.921,504.5 199.888,344.177 312.114,344.177 "/>
<path style="fill:#8CB4EB;" d="M203.534,380.643c14.067,12.206,32.381,19.647,52.467,19.647s38.4-7.441,52.467-19.647l3.646-36.466
	H199.888L203.534,380.643z"/>
<path style="fill:#F7D291;" d="M256.001,376.242L256.001,376.242c-30.99,0-56.113-25.123-56.113-56.113v-56.113h112.226v56.113
	C312.114,351.119,286.992,376.242,256.001,376.242z"/>
<path style="fill:#F0C382;" d="M199.888,305.948c16.842,8.996,35.938,14.181,56.113,14.181s39.271-5.185,56.113-14.181v-41.932
	H199.888V305.948z"/>
<path style="fill:#FFE1A0;" d="M372.235,159.806h-12.024V79.645H151.792v80.161h-12.024c-11.068,0-20.04,8.972-20.04,20.04
	c0,11.067,8.972,20.04,20.04,20.04h12.429c4.106,53.796,48.958,96.194,103.805,96.194s99.699-42.398,103.805-96.194h12.429
	c11.068,0,20.04-8.973,20.04-20.04C392.275,168.779,383.303,159.806,372.235,159.806z"/>
<path style="fill:#F7D291;" d="M151.792,79.645v80.161h-11.216c-9.127,0-17.651,5.784-20.015,14.599
	c-3.575,13.331,6.519,25.482,19.313,25.482h12.324c4.106,53.796,48.958,96.194,103.805,96.194c5.484,0,10.83-0.534,16.083-1.35
	c-49.946-7.709-88.228-50.754-88.228-102.859v-50.377c0-14.49,12.772-25.344,27.161-23.63c7.47,0.89,15.469,1.381,24.043,1.381
	c23.929,0,50.567-3.798,79.174-11.287c15.866-4.154,29.129-14.609,37.285-28.313L151.792,79.645L151.792,79.645z"/>
<path style="fill:#A06E50;" d="M190.87,47.581l1.002,32.065c0,0-24.048,24.048-24.048,56.113v9.895
	c0,8.085-6.021,14.906-14.044,15.908l-18.021,2.253V95.677C135.759,69.114,160.81,46.245,190.87,47.581z"/>
<path style="fill:#DBD9DC;" d="M352.04,384.103l-15.878-15.878l16.992-22.656c3.674-4.9,2.015-11.929-3.463-14.668l-37.578-18.789
	L256.001,504.5h48.097l50.945-101.891C358.129,396.437,356.92,388.982,352.04,384.103z"/>
<path style="fill:#CD916E;" d="M321.132,23.532l-1.002,56.113c0,0,24.048,24.048,24.048,56.113v9.895
	c0,8.085,6.021,14.906,14.044,15.908l18.021,2.253V71.629C376.243,45.066,351.193,22.196,321.132,23.532z"/>
<path style="fill:#DBD9DC;" d="M159.962,384.103l15.878-15.878l-16.992-22.656c-3.674-4.9-2.015-11.929,3.463-14.668l37.578-18.789
	L256.001,504.5h-48.097l-50.945-101.891C153.873,396.437,155.083,388.982,159.962,384.103z"/>
<path style="fill:#B67F5F;" d="M271.532,7.5c-66.879,0-79.696,20.331-131.195,36.734c-3.539,1.127-5.132,5.226-3.132,8.355
	c11.175,17.48,52.769,63.043,170.937,32.104c13.838-3.623,24.478-14.78,27.284-28.806l0,0c3.25-16.25-6.626-32.345-21.475-39.703
	C302.158,10.34,286.69,7.5,271.532,7.5z"/>
<rect x="103.69" y="456.4" style="fill:#A5CDFF;" width="80.16" height="48.1"/>
<path d="M207.905,160.322c-4.142,0-7.5,3.357-7.5,7.5v8.017c0,4.143,3.358,7.5,7.5,7.5s7.5-3.357,7.5-7.5v-8.017
	C215.405,163.68,212.047,160.322,207.905,160.322z"/>
<path d="M304.098,160.322c-4.143,0-7.5,3.357-7.5,7.5v8.017c0,4.143,3.357,7.5,7.5,7.5s7.5-3.357,7.5-7.5v-8.017
	C311.598,163.68,308.24,160.322,304.098,160.322z"/>
<path d="M285.317,229.274c2.949-2.908,2.981-7.657,0.072-10.605c-2.908-2.951-7.657-2.981-10.605-0.072
	c-2.738,2.7-9.3,5.854-18.782,5.854s-16.043-3.154-18.781-5.854c-2.95-2.911-7.699-2.878-10.606,0.071
	c-2.909,2.949-2.877,7.697,0.071,10.606c6.459,6.372,17.418,10.177,29.316,10.177C267.899,239.451,278.858,235.646,285.317,229.274z
	"/>
<path d="M215.921,136.274h-16.032c-4.142,0-7.5,3.357-7.5,7.5s3.358,7.5,7.5,7.5h16.032c4.142,0,7.5-3.357,7.5-7.5
	S220.063,136.274,215.921,136.274z"/>
<path d="M296.082,151.274h16.032c4.143,0,7.5-3.357,7.5-7.5s-3.357-7.5-7.5-7.5h-16.032c-4.143,0-7.5,3.357-7.5,7.5
	S291.94,151.274,296.082,151.274z"/>
<path d="M416.63,357.239l-54.059-16.62c0.088-1.633-0.032-3.285-0.417-4.917c-1.184-5.011-4.503-9.206-9.108-11.509l-33.432-16.715
	V283.64c25.013-17.396,42.617-44.741,47.019-76.253h4.458c14.617,0,27.155-10.861,28.543-24.728
	c0.778-7.771-1.764-15.529-6.974-21.286c-2.521-2.787-5.568-4.992-8.917-6.533V71.629c0-30.656-24.94-55.597-55.597-55.597
	c-0.039,0-0.561,0-1.268,0.001C313.375,6.073,293.538,0,271.532,0c-46.849,0-68.372,9.76-93.292,21.061
	c-13.313,6.037-27.078,12.279-46.59,17.985c-2.048,0.599-3.745,2.042-4.664,3.969c-0.919,1.926-0.974,4.153-0.151,6.122
	c0.228,0.546,3.579,8.325,12.224,17.775c-3.733,4.595-10.799,16.346-10.799,39.453v48.809c-8.63,4.115-14.929,12.266-15.89,21.857
	c-0.779,7.771,1.762,15.53,6.972,21.289c5.213,5.762,12.658,9.066,20.426,9.066h5.598c4.398,31.522,22.003,58.87,47.022,76.264
	v23.827l-33.433,16.715c-4.605,2.304-7.925,6.499-9.108,11.51c-0.385,1.631-0.504,3.283-0.417,4.916l-54.059,16.62
	c-23.481,7.22-39.258,28.575-39.258,53.142v94.12c0,4.143,3.358,7.5,7.5,7.5s7.5-3.357,7.5-7.5v-94.119
	c0-17.938,11.52-33.532,28.667-38.804l56.231-17.288l9.925,13.234L154.66,378.8c-7.174,7.173-8.946,18.089-4.409,27.164
	l21.47,42.939h-20.445v-8.532c0-4.143-3.358-7.5-7.5-7.5s-7.5,3.357-7.5,7.5v8.532h-32.581c-4.142,0-7.5,3.357-7.5,7.5V504.5
	c0,4.143,3.358,7.5,7.5,7.5h80.162c4.142,0,7.5-3.357,7.5-7.5v-16.326l9.84,19.681c1.314,2.628,3.962,4.147,6.714,4.147
	c1.127,0,2.271-0.256,3.348-0.794c3.705-1.853,5.207-6.357,3.354-10.063l-50.945-101.891c-1.645-3.29-1.002-7.247,1.599-9.849
	l15.877-15.878c2.639-2.639,2.936-6.817,0.697-9.803l-16.992-22.655c-0.565-0.754-0.494-1.527-0.401-1.921
	c0.093-0.395,0.375-1.118,1.218-1.54l29.54-14.77l20.854,71.499c1.16,3.978,5.322,6.258,9.3,5.101c3.977-1.16,6.26-5.323,5.1-9.3
	l-3.287-11.27c9.222,3.205,18.973,4.873,28.83,4.873c9.861,0,19.608-1.663,28.828-4.868l-28.829,98.84l-16.186-55.494
	c-1.16-3.978-5.323-6.261-9.3-5.101c-3.977,1.16-6.26,5.324-5.1,9.3l23.386,80.18c0.934,3.2,3.867,5.4,7.2,5.4s6.267-2.2,7.2-5.4
	l53.597-183.76l29.539,14.77c0.844,0.422,1.125,1.146,1.219,1.539c0.093,0.395,0.164,1.168-0.401,1.922l-16.992,22.655
	c-2.239,2.985-1.942,7.164,0.696,9.804l15.878,15.878c2.602,2.601,3.243,6.559,1.599,9.848L297.39,501.146
	c-1.853,3.705-0.351,8.21,3.354,10.063c1.077,0.539,2.222,0.794,3.349,0.794c2.751,0,5.4-1.52,6.714-4.147l50.945-101.891
	c4.537-9.074,2.766-19.99-4.407-27.164l-11.278-11.278l9.924-13.233l56.232,17.289c17.146,5.271,28.666,20.865,28.666,38.804V504.5
	c0,4.143,3.357,7.5,7.5,7.5s7.5-3.357,7.5-7.5v-94.119C455.888,385.814,440.112,364.458,416.63,357.239z M176.356,497h-65.162
	v-33.097h25.081v0.516c0,4.143,3.358,7.5,7.5,7.5s7.5-3.357,7.5-7.5v-0.516h25.081L176.356,497L176.356,497z M184.435,34.722
	C208.734,23.703,227.926,15,271.532,15c27.67,0,52.396,11.58,57.515,26.937c1.311,3.93,5.555,6.051,9.487,4.743
	c3.929-1.31,6.053-5.558,4.743-9.487c-0.431-1.294-0.946-2.563-1.529-3.809c15.714,5.606,26.995,20.63,26.995,38.245v80.678h-8.532
	c-4.705,0-8.532-3.827-8.532-8.532v-8.017c0-34.771-25.174-60.344-26.246-61.416c-1.977-1.978-4.892-2.687-7.562-1.849
	c-41.634,13.148-100.337,24.229-143.555,2.362c-15.379-7.782-24.46-17.671-29.236-24.274
	C161.001,45.349,173.343,39.752,184.435,34.722z M304.615,311.042l-14.324,49.112c-10.496,5.624-22.288,8.589-34.288,8.589
	c-11.993,0-23.796-2.961-34.287-8.581l-14.327-49.12v-18.607c14.705,7.137,31.199,11.147,48.613,11.147
	c17.412,0,33.906-4.012,48.613-11.154V311.042z M256.002,288.581c-53.326,0-96.709-43.384-96.709-96.71c0-4.143-3.358-7.5-7.5-7.5
	s-7.5,3.357-7.5,7.5v0.516h-4.524c-3.537,0-6.928-1.506-9.303-4.131c-2.406-2.659-3.532-6.114-3.17-9.729
	c0.631-6.292,6.613-11.221,13.619-11.221h10.878c12.976,0,23.532-10.557,23.532-23.532v-28.308c0-4.143-3.358-7.5-7.5-7.5
	s-7.5,3.357-7.5,7.5v28.308c0,4.705-3.828,8.532-8.532,8.532h-8.532v-45.941c0-17.451,4.69-26.129,6.856-29.206
	c4.582,3.614,9.956,7.194,16.246,10.472c16.997,8.859,37.227,13.765,60.127,14.581c26.841,0.965,57.519-3.743,91.24-13.973
	c5.952,7.208,18.951,25.475,18.951,47.518v8.017c0,12.976,10.557,23.532,23.532,23.532h12.024c3.537,0,6.928,1.506,9.303,4.131
	c2.406,2.659,3.532,6.113,3.17,9.728c-0.63,6.293-6.611,11.222-13.617,11.222h-3.384v-0.438c0-4.141-3.356-7.498-7.497-7.5
	c-0.001,0-0.002,0-0.003,0c-4.14,0-7.497,3.354-7.5,7.494C352.668,245.229,309.286,288.581,256.002,288.581z"/>
<path d="M408.308,452.911h-12.54v-12.54c0-4.143-3.357-7.5-7.5-7.5s-7.5,3.357-7.5,7.5v12.54h-12.541c-4.143,0-7.5,3.357-7.5,7.5
	s3.357,7.5,7.5,7.5h12.541v12.54c0,4.143,3.357,7.5,7.5,7.5s7.5-3.357,7.5-7.5v-12.54h12.54c4.143,0,7.5-3.357,7.5-7.5
	S412.45,452.911,408.308,452.911z"/>
<g>
</g>
<g>
</g>
<g>
</g>
<g>
</g>
<g>
</g>
<g>
</g>
<g>
</g>
<g>
</g>
<g>
</g>
<g>
</g>
<g>
</g>
<g>
</g>
<g>
</g>
<g>
</g>
<g>
</g>
</svg>
