<svg id="Capa_1" enable-background="new 0 0 512 512" height="512" viewBox="0 0 512 512" width="512" xmlns="http://www.w3.org/2000/svg"><g><g><path d="m395.94 192.59h-374.929c-7.427 0-13.448 6.021-13.448 13.448v209.723h401.824v-209.724c.001-7.427-6.02-13.447-13.447-13.447z" fill="#eedfda"/></g><g><path d="m395.827 192.59h-21.944c7.49 0 13.561 6.071 13.561 13.561v209.61h21.944v-209.61c0-7.49-6.072-13.561-13.561-13.561z" fill="#c9beb9"/></g><g><path d="m363.517 308.273c-.97-4.498-.754-9.171.639-13.557 2.017-6.354 3.108-13.119 3.108-20.141v-78.225c0-6.959-1.07-13.668-3.052-19.973-1.373-4.367-1.583-9.016-.618-13.491l5.577-25.867c1.1-5.101-3.435-9.636-8.536-8.536l-25.148 5.422c-4.601.992-9.384.749-13.851-.733-6.58-2.184-13.613-3.373-20.926-3.373h-184.783c-7.313 0-14.346 1.189-20.926 3.373-4.467 1.483-9.25 1.725-13.851.733l-25.148-5.422c-5.101-1.1-9.636 3.435-8.536 8.536l5.577 25.867c.965 4.475.755 9.124-.618 13.491-1.982 6.305-3.052 13.014-3.052 19.973v78.225c0 7.022 1.091 13.787 3.108 20.141 1.393 4.386 1.608 9.059.639 13.557l-5.654 26.227c-1.1 5.101 3.435 9.636 8.536 8.536l26.227-5.654c4.498-.97 9.171-.754 13.557.639 6.354 2.017 13.119 3.108 20.141 3.108h184.783c7.022 0 13.787-1.091 20.141-3.108 4.386-1.393 9.059-1.608 13.557-.639l26.227 5.654c5.101 1.1 9.636-3.435 8.536-8.536z" fill="#80b4fb"/></g><g><path d="m363.517 308.273c-.97-4.498-.754-9.171.639-13.557 2.017-6.354 3.108-13.119 3.108-20.141v-78.225c0-6.959-1.07-13.668-3.052-19.973-1.373-4.367-1.583-9.016-.618-13.491l5.577-25.867c1.1-5.101-3.435-9.636-8.536-8.536l-25.148 5.422c-4.43.955-9.028.753-13.351-.586.117.457.239.912.38 1.363 1.982 6.305 3.052 13.014 3.052 19.973v78.225c0 7.022-1.091 13.788-3.108 20.141-1.392 4.386-1.608 9.059-.639 13.557l5.654 26.227c1.1 5.101-3.435 9.636-8.536 8.536l-26.227-5.654c-4.498-.97-9.171-.754-13.557.639-6.354 2.017-13.119 3.108-20.141 3.108h-184.782c-7.022 0-13.787-1.091-20.141-3.108-.415-.132-.835-.243-1.255-.354 1.059 4.016 1.163 8.23.285 12.302l-5.654 26.227c-1.1 5.101 3.435 9.636 8.536 8.536l26.227-5.654c4.498-.97 9.171-.754 13.557.639 6.354 2.017 13.119 3.108 20.141 3.108h184.783c7.022 0 13.787-1.091 20.141-3.108 4.386-1.392 9.059-1.608 13.557-.639l26.227 5.654c5.101 1.1 9.636-3.435 8.536-8.536z" fill="#61a2f9"/></g><g><path d="m292.513 281.343h-168.388c-48.739 0-88.25 39.511-88.25 88.25v43.479h344.888v-43.479c0-48.739-39.511-88.25-88.25-88.25z" fill="#f9f5f5"/></g><g><path d="m291.767 281.343h-37.255c49.151 0 88.996 39.845 88.996 88.996v42.734h37.255v-42.734c0-49.152-39.845-88.996-88.996-88.996z" fill="#eedfda"/></g><g><path d="m238.096 305.104h-59.553c-7.541 0-13.655-6.113-13.655-13.655v-48.462h86.863v48.462c0 7.541-6.114 13.655-13.655 13.655z" fill="#ffcbbe"/></g><g><path d="m229.353 242.987v48.346c0 7.605-6.165 13.77-13.77 13.77h22.398c7.605 0 13.77-6.165 13.77-13.77v-48.346z" fill="#ffa68d"/></g><g><g><path d="m242.148 95.721h-67.658c-17.673 0-32 14.327-32 32v46.67h131.658v-46.67c0-17.673-14.327-32-32-32z" fill="#c56e37"/></g><g><path d="m241.878 95.721h-16.232c16.627 0 30.106 13.479 30.106 30.106v48.564h18.397v-46.4c-.001-17.822-14.449-32.27-32.271-32.27z" fill="#8f4e24"/></g><g><path d="m149.584 193.192c3.921 12.056 7.944 24.395-2.339 27.739s-23.468-8.855-27.389-20.912c-3.921-12.056 1.238-24.541 11.521-27.885 10.283-3.343 14.286 9.002 18.207 21.058z" fill="#ffcbbe"/></g><g><path d="m267.054 193.192c-3.921 12.056-7.944 24.395 2.339 27.739s23.468-8.855 27.389-20.912c3.921-12.056-1.238-24.541-11.521-27.885-10.283-3.343-14.286 9.002-18.207 21.058z" fill="#ffcbbe"/></g><g><path d="m237.831 135.056h-59.024c-20.058 0-36.317 16.26-36.317 36.317v42.759c0 36.052 29.226 65.278 65.278 65.278h1.103c36.052 0 65.278-29.226 65.278-65.278v-42.759c-.001-20.057-16.261-36.317-36.318-36.317z" fill="#ffcbbe"/></g><g><path d="m248.147 136.627c1.018 3.363 1.571 6.928 1.571 10.623v41.901c0 36.356-29.473 65.829-65.829 65.829-11.904 0-23.06-3.176-32.696-8.703 11.352 19.791 32.674 33.133 57.126 33.133 36.356 0 65.829-29.473 65.829-65.829v-41.901c0-16.532-10.955-30.5-26.001-35.053z" fill="#ffa68d"/></g></g><g><path d="m267.054 193.192c-3.921 12.056-7.944 24.395 2.339 27.739s23.468-8.855 27.389-20.912c3.921-12.056-1.238-24.541-11.521-27.885-10.283-3.343-14.286 9.002-18.207 21.058z" fill="#ffa68d"/></g><g><path d="m467.664 198.011h-.621c-20.305 0-36.765-16.46-36.765-36.765v-66.175c0-3.651 2.96-6.61 6.61-6.61h60.931c3.651 0 6.61 2.96 6.61 6.61v66.175c0 20.304-16.46 36.765-36.765 36.765z" fill="#f9f5f5"/></g><g><path d="m497.763 88.46h-22.127c3.682 0 6.666 2.985 6.666 6.666v65.809c0 16.623-10.94 30.69-26.012 35.396 3.494 1.091 7.21 1.68 11.064 1.68 20.476 0 37.076-16.599 37.076-37.076v-65.809c-.001-3.681-2.985-6.666-6.667-6.666z" fill="#eedfda"/></g><g><path d="m430.278 124.45v36.485c0 20.476 16.599 37.076 37.076 37.076 20.476 0 37.076-16.599 37.076-37.076v-36.485z" fill="#bed8fb"/></g><g><path d="m482.302 124.45v36.485c0 16.623-10.94 30.69-26.012 35.396 3.494 1.091 7.21 1.68 11.064 1.68 20.476 0 37.076-16.599 37.076-37.076v-36.485z" fill="#9dc6fb"/></g><g><path d="m282.253 337.93h-147.791c-42.572 0-81.224 16.771-109.718 44.063-10.864 10.406-16.992 24.809-16.992 39.853v30.222c0 3.128 2.536 5.664 5.664 5.664h390.192c3.128 0 5.664-2.536 5.664-5.664v-29.931c0-14.994-6.097-29.344-16.889-39.754-28.533-27.523-67.354-44.453-110.13-44.453z" fill="#80b4fb"/></g><g><path d="m392.383 382.384c-28.534-27.524-67.355-44.453-110.13-44.453h-72.36c42.776 0 81.597 16.93 110.13 44.453 10.792 10.41 16.889 24.76 16.889 39.754v29.931c0 3.128-2.536 5.664-5.664 5.664h72.36c3.128 0 5.664-2.536 5.664-5.664v-29.931c0-14.994-6.097-29.345-16.889-39.754z" fill="#61a2f9"/></g><g><ellipse cx="177.469" cy="187.473" rx="9.063" ry="9.063" transform="matrix(.995 -.099 .099 .995 -17.61 18.4)"/><ellipse cx="239.169" cy="187.473" rx="9.063" ry="9.063" transform="matrix(.995 -.099 .099 .995 -17.309 24.48)"/><path d="m220.761 219.565h-27.228c-4.177 0-7.563 3.386-7.563 7.563 0 4.178 3.386 7.563 7.563 7.563h27.228c4.177 0 7.563-3.386 7.563-7.563s-3.386-7.563-7.563-7.563z"/><path d="m497.763 80.897h-22.847v-19.066h29.513c4.177 0 7.563-3.386 7.563-7.563s-3.386-7.563-7.563-7.563h-388.735c-4.177 0-7.563 3.386-7.563 7.563s3.386 7.563 7.563 7.563h344.096v19.066h-22.846c-7.846 0-14.229 6.384-14.229 14.229v65.809c.172 7.345 1.582 14.977 6.472 23.129 4.08 6.708 9.88 12.258 16.78 16.041l-4.94 7.942c-7.367 11.844-8.052 26.943-1.788 39.405l20.542 40.866c4.969 9.886 2.816 22.071-5.234 29.654l-37.596 34.015v-145.836c0-11.648-9.476-21.124-21.124-21.124h-21.862c-.568-3.699-1.414-7.347-2.537-10.92-.976-3.105-1.129-6.435-.44-9.629l5.576-25.866c1.06-4.918-.43-9.977-3.987-13.535-3.557-3.557-8.618-5.052-13.537-3.988-7.839 1.033-27.03 7.836-35.021 4.903-2.983-.99-6.056-1.795-9.132-2.395-4.098-.792-8.071 1.88-8.869 5.98s1.879 8.071 5.979 8.869c2.444.476 4.886 1.116 7.258 1.903 5.726 1.9 11.89 2.229 17.827.948l24.571-5.297-5.452 25.291c-2.836 10.844 3.713 22.529 3.5 35.059v78.225c0 6.091-.927 12.097-2.754 17.853-.583 1.835-.988 3.715-1.25 5.613-17.042-15.086-39.432-24.26-63.929-24.26h-32.453v-7.433c10.52-10.16 18.046-23.466 21.001-38.541 10.93-3.668 20.215-14.856 23.66-25.447 5.204-16.002-2.142-32.787-16.374-37.416-.001-.001-.001-.001-.001-.001-1.552-.503-3.596-.949-5.888-.916v-36.034c0-21.964-17.869-39.834-39.834-39.834h-67.119c-20.008 0-36.613 14.831-39.412 34.075h-19.421c-10.698-1.087-21.507 5.392-33.182 4.277l-25.149-5.423c-4.918-1.061-9.979.432-13.535 3.989-3.557 3.558-5.047 8.617-3.987 13.535l5.576 25.867c.689 3.194.537 6.523-.44 9.629-1.123 3.572-1.969 7.22-2.537 10.919h-19.191v-106.898c0-8.986 7.311-16.298 16.297-16.298h41.124c4.177 0 7.563-3.386 7.563-7.563s-3.386-7.563-7.563-7.563h-41.124c-17.327 0-31.424 14.097-31.424 31.424v111.234c-5.066 3.862-8.355 9.94-8.355 16.788l.188 245.917c0 7.293 5.934 13.228 13.227 13.228h390.192c7.294 0 13.227-5.934 13.227-13.228l.116-79.683 47.798-43.245c.033-.03.066-.06.098-.091 12.941-12.132 16.415-31.675 8.449-47.525l-20.542-40.866c-3.914-7.787-3.486-17.221 1.117-24.622l6.819-10.962c2.175.327 4.399.499 6.664.499s0 0 0 0c16.153 0 30.329-8.624 38.167-21.509 2.881-4.252 6.666-14.529 6.472-23.129v-65.808c.001-7.846-6.383-14.23-14.229-14.23zm-95.939 125.254v159.52l-8.266 7.479c-1.725-1.558-3.474-3.082-5.254-4.56-.324-18.135-5.671-35.063-14.708-49.453-1.114-6.585-4.48-14.802-2.232-22.133 2.298-7.237 3.463-14.784 3.463-22.43v-74.421h21c3.307 0 5.997 2.691 5.997 5.998zm-229.373 71.448c10.65 5.977 22.902 9.374 35.868 9.374 12.967 0 25.218-3.397 35.868-9.374v13.734c0 3.422-2.785 6.207-6.207 6.207h-59.322c-3.423 0-6.207-2.785-6.207-6.207zm110.471-98.272c6.301 2.049 9.292 10.283 6.668 18.354-2.572 7.907-10.65 15.948-16.308 16.234-3.681.185-6.693 2.997-7.13 6.656-3.493 29.232-28.355 51.276-57.832 51.276s-54.34-22.044-57.832-51.276c-.437-3.66-3.449-6.471-7.13-6.656-5.659-.286-13.737-8.326-16.308-16.234-2.625-8.071.367-16.305 6.667-18.353.317-.103.566-.184.802-.184.493 0 .929.353 1.812 1.591 1.909 2.681 5.329 3.823 8.463 2.818 3.904-1.111 6.005-6.617 5.261-11.873 0-16.024 13.036-29.06 29.061-29.06h58.41c16.024 0 29.061 13.036 29.061 29.06-.171 4.026-.471 9.402 5.261 11.873 3.134 1.005 6.555-.137 8.463-2.818 1.303-1.831 1.633-1.724 2.611-1.408zm-132.869-51.335c0-13.624 11.084-24.707 24.707-24.707h67.118c13.623 0 24.707 11.083 24.707 24.707v10.441c-7.775-6.804-17.942-10.939-29.061-10.939h-58.41c-11.119 0-21.286 4.135-29.061 10.939zm-70.496 13.305c5.936 1.278 12.1.95 17.828-.949 5.972-1.982 12.211-2.988 18.543-2.988h18.999v26.665c-2.29-.034-4.337.412-5.889.918-14.232 4.629-21.578 21.413-16.374 37.416 3.444 10.593 12.728 21.78 23.66 25.447 2.955 15.075 10.481 28.381 21.001 38.541v7.433h-32.453c-24.496 0-46.887 9.174-63.929 24.261-.262-1.899-.668-3.779-1.25-5.613-1.827-5.755-2.754-11.763-2.754-17.853v-78.225c-.641-10.818 6.302-22.612 3.5-35.059l-5.452-25.291zm-64.43 64.854c0-3.307 2.69-5.997 5.998-5.997h20.686v74.421c0 7.646 1.165 15.193 3.463 22.43 2.286 4.612-1.189 17.139-2.233 22.133-9.048 14.409-14.397 31.361-14.708 49.522-3.022 2.512-5.965 5.136-8.822 7.872-1.546 1.481-3.008 3.038-4.385 4.661v-175.042zm386.581 244.018h-386.393v-28.323c0-12.932 5.344-25.466 14.66-34.391 20.909-20.028 46.889-33.552 75.13-39.113 4.098-.807 6.767-4.783 5.96-8.881-.807-4.1-4.785-6.771-8.882-5.96-20.597 4.054-40.085 11.977-57.591 23.257 6.486-38.457 40.005-67.852 80.278-67.852h32.453v2.427c0 11.764 9.57 21.334 21.334 21.334h59.322c11.764 0 21.333-9.57 21.333-21.334v-2.427h32.453c40.239 0 73.733 29.344 80.26 67.753-26.572-17.104-57.535-26.292-89.775-26.292h-143.33c-4.177 0-7.563 3.386-7.563 7.563 0 4.178 3.386 7.563 7.563 7.563h143.333c34.329 0 67.068 11.455 93.659 32.52.07.058.144.112.216.168 3.799 3.021 7.472 6.238 11.005 9.646 9.264 8.935 14.576 21.44 14.576 34.31v28.032zm95.158-354.145v20.863h-59.025v-20.863zm-2.323 76.388c-2.926 8.628-15.692 18.665-27.19 18.035-16.273 0-29.512-13.239-29.512-29.512v-28.922h59.025v28.922c-.428 4.049.2 4.675-2.323 11.477z"/></g></g></svg>